<svg width="30" height="30" viewBox="0 0 30 30" fill="none" xmlns="http://www.w3.org/2000/svg">
<path fill-rule="evenodd" clip-rule="evenodd" d="M30 15.0001C30 6.71625 23.2847 0 14.9999 0C6.71532 0 0 6.71625 0 15.0001C0 23.2847 6.71522 30 14.9999 30C23.2847 30 30 23.2848 30 15.0001ZM22.2778 10.665C23.0174 10.5787 23.7225 10.3884 24.3777 10.1053C23.8874 10.8179 23.2677 11.4422 22.5553 11.9411L22.5656 12.4005C22.5656 17.088 18.8887 22.4955 12.1649 22.4955C10.0997 22.4955 8.1796 21.9077 6.56055 20.9008C6.84745 20.9336 7.13806 20.9505 7.4334 20.9505C9.14617 20.9505 10.7222 20.3842 11.9737 19.4317C10.3734 19.4035 9.02331 18.3779 8.55836 16.9679C8.78151 17.0101 9.01023 17.0317 9.24554 17.0317C9.5793 17.0317 9.90183 16.9876 10.2084 16.907C8.53591 16.5807 7.27595 15.1472 7.27595 13.4279V13.3829C7.76994 13.65 8.33252 13.8085 8.93248 13.8272C7.95181 13.1925 7.30684 12.105 7.30684 10.875C7.30684 10.2244 7.48685 9.61598 7.80187 9.09192C9.60371 11.2378 12.2981 12.6507 15.3356 12.7988C15.2729 12.5391 15.2409 12.2681 15.2409 11.9897C15.2409 10.0304 16.8778 8.44315 18.8953 8.44315C19.9471 8.44315 20.8968 8.8735 21.5634 9.56254C22.3968 9.40415 23.1787 9.10881 23.8856 8.70101C23.6128 9.53061 23.0334 10.2253 22.2778 10.665Z" fill="white"/>
</svg>
